<svg id="Layer_1" data-name="Layer 1" xmlns="http://www.w3.org/2000/svg" xmlns:xlink="http://www.w3.org/1999/xlink" viewBox="0 0 1000 1000"><defs><style>.cls-1{fill:url(#linear-gradient);}.cls-2{fill:url(#linear-gradient-2);}.cls-3{fill:url(#linear-gradient-3);}.cls-4{fill:#878787;}</style><linearGradient id="linear-gradient" x1="249.29" y1="462.52" x2="737.75" y2="462.52" gradientUnits="userSpaceOnUse"><stop offset="0" stop-color="#00a8de"/><stop offset="0.2" stop-color="#333391"/><stop offset="0.4" stop-color="#e91388"/><stop offset="0.6" stop-color="#eb2d2e"/><stop offset="0.8" stop-color="#fde92b"/><stop offset="1" stop-color="#009e54"/></linearGradient><linearGradient id="linear-gradient-2" x1="221.44" y1="483.59" x2="778.56" y2="483.59" gradientUnits="userSpaceOnUse"><stop offset="0" stop-color="#009e54"/><stop offset="0.2" stop-color="#fde92b"/><stop offset="0.4" stop-color="#eb2d2e"/><stop offset="0.6" stop-color="#e91388"/><stop offset="0.8" stop-color="#333391"/><stop offset="1" stop-color="#00a8de"/></linearGradient><linearGradient id="linear-gradient-3" x1="221.44" y1="443.36" x2="778.56" y2="443.36" xlink:href="#linear-gradient-2"/></defs><path class="cls-1" d="M254.63,487.91v-.22c-.09-3.33-.29-6.71-.5-10.1-.14-2.42-.32-4.86-.47-7.3,0-.08,0-.18,0-.26-.2-2.94-.37-5.89-.51-8.82s-.19-6.07-.19-9.07v-1.85c-.63.95-1.23,1.91-1.82,2.86,0,4.1-.15,8.22-.41,12.38v0c-.08,1.5-.17,3-.27,4.48-.08,1.08-.14,2.13-.22,3.2-.17,2.64-.35,5.25-.48,7.87-.14,2.28-.24,4.54-.3,6.81v0c-.05,2-.09,3.92-.15,5.85h.25c1.68,0,3.42-.06,5.25-.08C254.73,491.79,254.69,489.86,254.63,487.91Zm16.1,0c0-.84-.06-1.68-.09-2.52-.18-5.07-.57-10.22-.9-15.36q-.24-3.36-.39-6.71c-.14-2.67-.24-5.35-.28-8,0-1.05,0-2.13,0-3.18,0-4.76.13-9.45.42-14l.24-3.28c.16-2,.31-3.94.45-5.87-1.29,1.23-2.54,2.48-3.73,3.78,0,.71.1,1.39.16,2.09.15,2.05.29,4.1.39,6.19.19,3.65.29,7.37.27,11.12,0,1.68,0,3.38-.08,5.07-.06,2.89-.19,5.78-.37,8.69-.08,1.38-.15,2.75-.25,4.13-.35,5.53-.76,11.05-.94,16.49,0,.47,0,.92-.06,1.39-.06,1.95-.09,3.88-.15,5.81,1.79,0,3.63.08,5.5.14C270.83,491.89,270.79,489.9,270.73,487.91ZM301.94,470c-.08-1.15-.16-2.3-.22-3.45-.29-4.84-.49-9.68-.49-14.44,0-3.92.08-7.79.3-11.59-.78.17-1.57.39-2.35.64.2,3.59.28,7.26.26,10.95,0,5.33-.24,10.73-.61,16.16,0,.58-.06,1.15-.09,1.73q-.18,2.76-.36,5.49,1.9-1.29,3.75-2.4C302.07,472.08,302,471.07,301.94,470Zm0,0c-.08-1.15-.16-2.3-.22-3.45-.29-4.84-.49-9.68-.49-14.44,0-3.92.08-7.79.3-11.59-.78.17-1.57.39-2.35.64.2,3.59.28,7.26.26,10.95,0,5.33-.24,10.73-.61,16.16,0,.58-.06,1.15-.09,1.73q-.18,2.76-.36,5.49,1.9-1.29,3.75-2.4C302.07,472.08,302,471.07,301.94,470Zm-15.11,17.88c0-1.35-.08-2.7-.15-4-.1-2.32-.24-4.65-.39-7s-.3-4.56-.45-6.85c-.41-6-.71-12-.71-17.89,0-1.09,0-2.19,0-3.28,0-2.42.1-4.8.22-7.18s.25-4.59.43-6.85c.29-3.75.58-7.4.78-10.95.12-1.77.19-3.53.23-5.25,0-.52,0-1,0-1.54a54.25,54.25,0,0,0-5.11,2.83q.09,3.34.35,6.83c.18,2.64.39,5.33.61,8.08s.39,5.54.5,8.35c.1,2.34.14,4.72.16,7.11v1.85c0,5.89-.29,11.88-.7,17.89-.22,3.34-.45,6.7-.65,10-.13,2.4-.25,4.78-.33,7.17,0,.23,0,.46,0,.7s0,.45,0,.66c-.06,1.95-.1,3.9-.13,5.84,1.83.13,3.68.29,5.52.48,0-1.93-.1-3.88-.14-5.85C286.85,488.67,286.85,488.28,286.83,487.91ZM301.94,470c-.08-1.15-.16-2.3-.22-3.45-.29-4.84-.49-9.68-.49-14.44,0-3.92.08-7.79.3-11.59-.78.17-1.57.39-2.35.64.2,3.59.28,7.26.26,10.95,0,5.33-.24,10.73-.61,16.16,0,.58-.06,1.15-.09,1.73q-.18,2.76-.36,5.49,1.9-1.29,3.75-2.4C302.07,472.08,302,471.07,301.94,470Zm0,0c-.08-1.15-.16-2.3-.22-3.45-1,.55-1.91,1.11-2.89,1.72,0,.58-.06,1.15-.09,1.73q-.18,2.76-.36,5.49,1.9-1.29,3.75-2.4C302.07,472.08,302,471.07,301.94,470ZM303,491.38c0-1.15-.06-2.32-.1-3.47-.14-4.88-.47-9.84-.8-14.79-.06-1-.14-2.05-.19-3.09s-.16-2.3-.22-3.45c-.29-4.84-.49-9.68-.49-14.44,0-3.92.08-7.79.3-11.59.09-1.93.21-3.83.37-5.72a.44.44,0,0,1,0-.16c.41-5.56.87-10.92,1-16v-.43c.06-2,.06-4,0-5.91a52,52,0,0,0-5.21.9c0,1.78,0,3.59,0,5.44,0,.2,0,.39,0,.61.14,5,.58,10.19,1,15.59,0,.18,0,.37,0,.55.16,1.91.28,3.86.37,5.81.2,3.59.28,7.26.26,10.95,0,5.33-.24,10.73-.61,16.16,0,.58-.06,1.15-.09,1.73q-.18,2.76-.36,5.49c-.29,4.15-.52,8.29-.64,12.39l-.06,2.5c-.06,2-.1,3.92-.15,5.85,1.91.33,3.8.68,5.65,1.09C303.13,495.38,303.07,493.39,303,491.38Zm16.19,4.68c-.05-2.69-.11-5.4-.19-8.15-.16-5.9-.61-11.89-1-17.88-.09-1.3-.17-2.59-.23-3.9-.14-2-.23-3.94-.29-5.91-.12-2.71-.18-5.41-.18-8.08,0-3.63.06-7.24.26-10.77q.14-3,.37-5.92c0-.21,0-.4,0-.62.42-5.62.89-11,1-16.2v-.35c0-2,.06-4,0-5.85-1.76-.16-3.47-.27-5.19-.33,0,1.89,0,3.86,0,5.85,0,.24,0,.45,0,.68.12,5.12.58,10.52,1,16.1v.1c.16,1.95.28,3.9.37,5.89q.33,5.63.3,11.42c0,2.85-.06,5.72-.2,8.59-.08,2.06-.17,4.11-.31,6.18-.06,1-.12,2.09-.2,3.12-.39,6-.83,12-1,17.88-.06,2.07-.1,4.12-.16,6.16s-.09,4.08-.15,6.09a59.22,59.22,0,0,1,5.87,2.31C319.34,500.36,319.3,498.21,319.22,496.06Zm16.36,9.16v-.1c-.16-5.58-.3-11.36-.45-17.21s-.61-11.89-1-17.88c-.07-1.19-.15-2.4-.21-3.59-.14-2-.24-4-.31-6.07-.12-2.75-.18-5.5-.18-8.23V450q0-3.57.18-7.08c.11-2.73.27-5.45.48-8.12.38-5,.78-9.78.94-14.38,0-.61.06-1.21.08-1.82,0-1.4,0-2.77,0-4.11-1.76-.32-3.49-.59-5.23-.84,0,1.62,0,3.28,0,4.95,0,.34,0,.67,0,1,.13,4.86.56,9.93,1,15.2.18,2.21.31,4.43.41,6.67s.22,4.77.24,7.19c0,1.15,0,2.3,0,3.45,0,2.59-.06,5.21-.16,7.82-.08,2-.18,3.93-.29,5.88-.08,1.4-.16,2.79-.26,4.19-.39,6-.84,12-1,17.88-.12,4.6-.24,9.13-.35,13.56,0,1.27-.06,2.52-.1,3.75,0,1,0,2,0,3.06q3,1.85,6.21,3.51C335.66,509.65,335.64,507.44,335.58,505.22Zm16.1,0c-.16-5.62-.3-11.42-.45-17.31-.12-4.63-.43-9.29-.74-14-.08-1.29-.18-2.6-.26-3.89-.08-1-.13-2.08-.19-3.12,0-.49-.06-1-.08-1.46-.18-3-.31-5.93-.37-8.88v0c0-1.46-.06-2.95-.06-4.41,0-5.89.21-11.69.66-17.31.3-3.8.61-7.51.78-11.1q.18-2.58.24-5.1c0-.29,0-.58,0-.87L346,416.6c0,.67,0,1.35,0,2,0,1.33.07,2.66.15,4,.2,3.93.55,8,.86,12.18.45,5.62.7,11.42.66,17.31,0,.84,0,1.7,0,2.54,0,2.67-.1,5.36-.26,8.07,0,.9-.08,1.8-.13,2.7-.08,1.52-.18,3.06-.28,4.58l-.12,1.82c-.35,5.38-.74,10.77-.87,16.06-.16,5.89-.3,11.69-.45,17.31,0,1.64-.06,3.27-.06,4.87,0,1.16,0,2.29,0,3.4s0,2,0,3c2,.88,4.12,1.69,6.24,2.49,0-1.77,0-3.59,0-5.44v-.8C351.75,510.25,351.75,507.75,351.68,505.22Zm16.09,0c-.15-5.62-.29-11.42-.44-17.31l-.06-1.7c-.14-4-.39-8.1-.69-12.18-.07-1.32-.17-2.67-.25-4-.41-6-.7-12-.7-17.89s.21-11.69.66-17.31c.2-2.44.39-4.86.55-7.22q.23-3,.35-6l-5-1.25c0,2,.18,4,.32,6.13.17,2.71.41,5.48.62,8.31.45,5.62.7,11.42.66,17.31s-.29,11.88-.7,17.89c0,.53-.08,1.08-.1,1.6-.19,2.87-.39,5.74-.54,8.59-.16,2.58-.3,5.13-.35,7.69-.16,5.89-.3,11.69-.45,17.31-.08,2.81-.08,5.58-.08,8.27,0,.9,0,1.78,0,2.65,0,1.78,0,3.54.1,5.27,0,.3,0,.59,0,.88q3,.91,6,1.74c0-.86,0-1.74,0-2.62,0-1.13.06-2.26.08-3.41,0-1.48,0-3,0-4.51C367.85,510.8,367.85,508,367.77,505.22ZM384,513.49c0-2.3,0-4.64-.06-7,0-.41,0-.82,0-1.23-.07-2.64-.13-5.29-.21-8-.08-3.09-.16-6.19-.24-9.33-.05-2.44-.17-4.9-.33-7.36-.09-1.93-.21-3.88-.35-5.83-.1-1.56-.21-3.13-.31-4.69-.41-6-.7-12-.7-17.89s.21-11.69.66-17.31c.08-1.07.16-2.13.25-3.16.16-2,.3-4,.41-5.93l-4.52-1.17q.17,3,.41,6.14c.11,1.37.23,2.74.33,4.12.45,5.62.7,11.42.66,17.31s-.29,11.88-.7,17.89c-.12,1.66-.22,3.32-.33,5-.14,2-.26,3.92-.35,5.87-.14,2.36-.26,4.71-.32,7,0,.88,0,1.73-.07,2.61-.08,3-.14,6-.22,9-.06,1.93-.1,3.82-.15,5.72-.08,2.81-.08,5.58-.08,8.27,0,2.38,0,4.7.06,7,0,.31,0,.64,0,.95,0,1.72,0,3.4.09,5.06,1.93.41,3.89.8,5.86,1.15.06-1.93.11-3.9.13-5.93v-.28C384,518.84,384,516.2,384,513.49Zm-.53-25.58c-.05-2.44-.17-4.9-.33-7.36-1.52.18-3,.29-4.54.33-.14,2.36-.26,4.71-.32,7,0,.88,0,1.73-.07,2.61q2.74,3.44,5.5,6.72C383.58,494.15,383.5,491.05,383.42,487.91Zm16.63,26.24c0-.21,0-.44,0-.66,0-2.69,0-5.46-.08-8.27-.15-5.62-.29-11.42-.45-17.31-.09-3.67-.31-7.36-.54-11.09-.14-2-.28-4-.41-6.06,0-.24,0-.49,0-.73-.41-6-.7-12-.7-17.89,0-5.66.19-11.22.62-16.63,0-.23,0-.45,0-.68.14-1.78.27-3.51.41-5.23-1.31-.29-2.65-.6-4-.94.14,2,.31,4.06.47,6.13v0c.45,5.62.7,11.42.66,17.31s-.29,11.88-.7,17.89l-.12,1.9c-.15,2.08-.29,4.17-.41,6.24-.21,3.26-.39,6.52-.47,9.74-.15,5.89-.29,11.69-.45,17.31,0,1.07,0,2.14,0,3.22,0,1.71,0,3.39,0,5.05,0,1,0,2,0,3,0,1.67,0,3.31.09,4.93,0,.65,0,1.29,0,1.92,0,2,.08,4,.16,5.95,1.87.25,3.77.48,5.68.68.08-1.91.13-3.88.17-5.89,0-.84,0-1.68,0-2.54v-.12C400.05,519.05,400.09,516.63,400.05,514.15Zm-17-33.6c-1.52.18-3,.29-4.54.33-.14,2.36-.26,4.71-.32,7,0,.88,0,1.73-.07,2.61q2.74,3.44,5.5,6.72c-.08-3.09-.16-6.19-.24-9.33C383.37,485.47,383.25,483,383.09,480.55Zm.33,7.36c-.05-2.44-.17-4.9-.33-7.36-1.52.18-3,.29-4.54.33-.14,2.36-.26,4.71-.32,7,0,.88,0,1.73-.07,2.61q2.74,3.44,5.5,6.72C383.58,494.15,383.5,491.05,383.42,487.91Zm32.73,25.58c0-2.69,0-5.46-.08-8.27-.15-5.62-.29-11.42-.45-17.31s-.6-11.89-1-17.88c0-.17,0-.37,0-.54-.14-2.21-.27-4.41-.37-6.6-.2-3.61-.3-7.2-.3-10.75,0-4.61.12-9.13.41-13.58.08-1.25.16-2.5.26-3.73.06-.7.12-1.4.17-2.11-1.15-.17-2.32-.37-3.51-.58.08.88.14,1.79.22,2.69.07,1.09.15,2.19.23,3.3.29,4.56.47,9.27.43,14,0,4-.14,8.14-.37,12.25-.08,1.88-.2,3.77-.33,5.64,0,.43-.06.86-.08,1.29-.37,5.56-.78,11.12-.92,16.59-.15,5.89-.29,11.69-.45,17.31-.07,2.81-.07,5.58-.07,8.27s0,5,0,7.45a3.77,3.77,0,0,1,0,.47c0,3.26.14,6.42.24,9.43,1.85.12,3.72.21,5.6.27.1-2.42.17-4.94.21-7.53,0-.72,0-1.45,0-2.17C416.15,518.84,416.19,516.2,416.15,513.49Zm-1.93-50.6c-.82.53-1.64,1-2.46,1.5-.08,1.88-.2,3.77-.33,5.64,0,.43-.06.86-.08,1.29,1.07-.58,2.17-1.19,3.24-1.83C414.45,467.28,414.32,465.08,414.22,462.89Zm0,0c-.82.53-1.64,1-2.46,1.5-.08,1.88-.2,3.77-.33,5.64,0,.43-.06.86-.08,1.29,1.07-.58,2.17-1.19,3.24-1.83C414.45,467.28,414.32,465.08,414.22,462.89Zm18,50.6c0-2.69,0-5.46-.08-8.27-.16-5.62-.29-11.42-.45-17.31s-.6-11.89-1-17.88c-.26-3.84-.47-7.67-.59-11.47q-.12-3.22-.12-6.42V451c0-3.73.12-7.42.34-11.05.07-1.71.19-3.41.33-5.09l.06-.72c-1.06,0-2.13,0-3.24-.06,0,.25,0,.53.05.78.14,1.68.26,3.36.34,5.05.23,4,.35,8.12.33,12.26v.41q0,3.84-.18,7.71c-.11,3.24-.31,6.51-.52,9.77-.39,6-.84,12-1,17.88s-.29,11.69-.45,17.31c-.08,2.81-.08,5.58-.08,8.27s0,5.35.08,7.92c0,1.35,0,2.68.06,4,.06,2,.12,4,.2,5.86a3.85,3.85,0,0,0,.48,0,22.4,22.4,0,0,0,5.12-.59c.07-2,.13-4,.19-6.11,0-1,0-2.08,0-3.14C432.25,518.84,432.29,516.2,432.25,513.49Zm-20.49-49.1c-.08,1.88-.2,3.77-.33,5.64,0,.43-.06.86-.08,1.29,1.07-.58,2.17-1.19,3.24-1.83-.14-2.21-.27-4.41-.37-6.6C413.4,463.42,412.58,463.91,411.76,464.39Zm2.46-1.5c-.82.53-1.64,1-2.46,1.5-.08,1.88-.2,3.77-.33,5.64,0,.43-.06.86-.08,1.29,1.07-.58,2.17-1.19,3.24-1.83C414.45,467.28,414.32,465.08,414.22,462.89Zm34.13,50.6v-1.76c0-2.12,0-4.31-.08-6.51-.16-5.62-.29-11.42-.45-17.31s-.6-11.89-1-17.88-.71-12-.71-17.89c0-3.06,0-6.13.18-9.13.12-2.75.27-5.49.49-8.18.09-1.29.19-2.58.31-3.84a27.58,27.58,0,0,1-3.63,1.4c.08.8.14,1.62.19,2.44q.42,5.13.57,10.42c.08,2.28.12,4.57.1,6.89,0,5.89-.3,11.88-.71,17.89s-.83,12-1,17.88-.29,11.69-.45,17.31c-.08,2.81-.08,5.58-.08,8.27,0,1.68,0,3.34,0,5,0,1,0,2,.08,3,0,1.51,0,3,.08,4.41a43.59,43.59,0,0,0,6-5.25C448.35,518.27,448.39,515.91,448.35,513.49Zm15.57-25.58c0-.45,0-.88-.06-1.33-.16-5.46-.57-11-.94-16.55-.41-6-.7-12-.7-17.89s.22-11.69.66-17.31c.3-3.8.61-7.51.79-11.1.11-1.72.27-5.16.27-6.37-1.68,1.71-3.38,3.55-5.11,5.44.07,2.65.25,3,.44,5.75.16,2.07.34,4.15.49,6.28.45,5.62.71,11.42.67,17.31s-.3,11.88-.71,17.89-.84,12-1,17.88c-.08,2.85-.14,5.68-.24,8.47-.05,3-.27,12.15-.27,13.77,1.85-1.67,3.92-3.45,6.15-5.23C464.21,499.4,464.08,493.7,463.92,487.91Zm16.1,0c0-.22,0-.43,0-.65-.18-5.67-.61-11.45-1-17.23,0-.11,0-.23,0-.35-.25-3.82-.47-7.65-.56-11.45q-.12-3-.12-6.09c0-5.89.21-11.69.66-17.31s.9-11,1-16.2c.1-3.86,0-7.59,0-11.1,0-1.17-.14-3.76-.18-5-1.58,1.21-3.18,2.58-4.84,4,0,2.58-.09,2.9-.11,5.71,0,2.07,0,4.22,0,6.4.11,5.16.58,10.58,1,16.2s.7,11.42.66,17.31c0,3.36-.09,6.73-.25,10.13-.12,2.57-.27,5.17-.45,7.76-.15,2.29-.31,4.59-.45,6.87-.23,3.69-.45,7.38-.54,11l-.06,2.42q-.09,3.57-.18,7.08c1.84-1.23,3.71-2.42,5.58-3.51C480.12,491.91,480.08,489.92,480,487.91Zm15-51.5c0-.53.07-1.05.11-1.58.43-5.62.9-11,1-16.2s0-10-.1-14.51c-.08-2.25-.14-4.39-.23-6.44s-.3-3.82-.32-3.9a31,31,0,0,0-3.94,1.33c-.14,2.07-.23,2.14-.33,4.48,0,1.46-.1,3-.14,4.53-.07,4.48-.21,9.36-.09,14.51s.58,10.58,1,16.2c.1,1.25.18,2.5.25,3.75.18,2.69.3,5.42.37,8.17,0,1.8.06,3.59,0,5.39,0,5.89-.29,11.88-.7,17.89-.25,4-.55,8-.74,12-.12,1.95-.2,3.91-.25,5.84a4.52,4.52,0,0,1,0,.52,41.9,41.9,0,0,1,5.15-1.81c0-2-.14-4-.28-6-.17-3.53-.42-7.07-.66-10.62-.41-6-.7-12-.7-17.89,0-2.58,0-5.15.12-7.69C494.63,441.74,494.77,439.07,495,436.41Zm16.15-.6c0-.34,0-.65.06-1,.43-5.62.9-11,1-16.2s0-10-.1-14.51c0-1.37-.08-2.7-.12-4-.12-2.58-.21-2.68-.35-4.94-1.25-.53-3.82-1.33-3.94-1.35s-.24,1.72-.31,3.73-.16,4.25-.24,6.54c-.08,4.48-.21,9.36-.1,14.51s.59,10.52,1,16.1v.1c.16,2.05.29,4.14.39,6.23.19,3.64.29,7.33.27,11.08,0,5.89-.29,11.88-.7,17.89-.21,3.28-.45,6.54-.62,9.8-.12,1.95-.24,3.9-.28,5.83,1.74.1,3.42.28,5,.47,0-2-.14-3.94-.28-5.91-.17-3.38-.43-6.79-.64-10.19-.41-6-.7-12-.7-17.89,0-3.38.06-6.69.21-10C510.83,440,511,437.89,511.12,435.81Zm17.19,52.1c0-1.23-.07-2.48-.15-3.71-.18-4.68-.53-9.42-.84-14.17-.27-3.86-.49-7.72-.59-11.57-.07-2.11-.11-4.23-.11-6.32,0-1.15,0-2.3,0-3.45.05-4.71.29-9.33.64-13.86.41-5.37.86-10.58,1-15.51,0-.24,0-.47,0-.69.12-5.15,0-6.37,0-6.95-1.67-1.93-3.37-4.45-4.86-6.23-.06,1.56-.26,3.78-.28,6.51,0,2.17,0,4.39,0,6.67.12,5.16.59,10.58,1,16.2.29,3.83.51,7.73.6,11.67q.09,2.81.06,5.64c0,1.21,0,2.42,0,3.63-.08,4.72-.33,9.48-.66,14.26-.27,4.2-.57,8.39-.78,12.55-.1,1.78-.18,3.55-.22,5.33,0,.23,0,.45,0,.68,1.84.61,3.59,1.27,5.29,2C528.35,489.68,528.33,488.79,528.31,487.91Zm16.22,4.1-.12-4.1c0-.88-.06-1.78-.09-2.66-.14-3.84-.39-7.72-.67-11.63-.08-1.19-.15-2.4-.23-3.59-.41-6-.7-12-.7-17.89,0-3.06,0-6.13.17-9.13.12-2.75.27-5.49.49-8.18.06-.68.1-1.37.15-2.05.34-4.37.69-8.6.8-12.68,0-.49,0-1,.06-1.47,0-1.85.06-3.66,0-5.42-1.75-1.13-3.49-2.28-5.19-3.44,0,2.27-.06,4.63,0,7,0,.6,0,1.21,0,1.83.06,2.5.2,5.08.37,7.69.2,2.77.43,5.62.65,8.51.11,1.44.21,2.89.29,4.35.27,4.24.39,8.57.37,13,0,5.37-.23,10.79-.6,16.25,0,.55-.06,1.1-.1,1.64-.18,2.74-.37,5.49-.53,8.22-.21,3.24-.39,6.46-.47,9.66,0,.43,0,.84,0,1.27-.06,2.18-.09,4.35-.15,6.51l1.79,1c1.29.68,2.58,1.39,3.87,2.05C544.63,496.49,544.57,494.25,544.53,492Zm16.2,3.63c-.08-2.56-.14-5.14-.22-7.73-.15-5.9-.6-11.89-1-17.88-.08-1.21-.16-2.44-.22-3.65-.21-3.2-.35-6.4-.43-9.58,0-1.56-.06-3.12-.06-4.66,0-5.89.22-11.69.67-17.31.15-2,.31-3.92.45-5.85.15-2.17.31-4.3.41-6.38-1.66-.86-3.32-1.76-4.94-2.68.06,2.25.19,4.57.35,6.91.18,2.61.39,5.29.61,8,.44,5.62.7,11.42.66,17.31,0,.68,0,1.38,0,2.07,0,3.06-.14,6.16-.31,9.27-.1,2.18-.22,4.37-.37,6.55-.39,6-.84,12-1,17.88l-.06,2.12c-.11,4.51-.21,9-.33,13.31a47,47,0,0,0,6,1.82C560.86,502,560.79,498.86,560.73,495.64Zm16.17,3.94c-.09-3.83-.19-7.73-.29-11.67-.08-3.18-.25-6.4-.45-9.62-.13-2.19-.29-4.37-.43-6.58,0-.56-.08-1.11-.11-1.68-.41-6-.71-12-.71-17.89s.22-11.49.65-17c0-.09,0-.19,0-.29.15-1.93.29-3.84.45-5.72-1.39-.41-2.76-.86-4.12-1.36.15,2.1.33,4.23.49,6.42,0,.21,0,.45.05.66.45,5.62.71,11.42.67,17.31s-.29,11.77-.69,17.72a1,1,0,0,0,0,.17c-.14,2.11-.3,4.24-.41,6.35-.26,3.86-.49,7.72-.59,11.53-.12,4.25-.21,8.47-.31,12.58-.06,1.6-.1,3.17-.14,4.73,0,.39,0,.76,0,1.13.26,0,.51,0,.76,0a20.66,20.66,0,0,0,5.35-.7v-.45C577,503.36,577,501.49,576.9,499.58Zm15.81-11.67c0-.39,0-.8,0-1.19-.08-2.23-.18-4.49-.31-6.73q-.18-2.94-.37-5.9c-.1-1.34-.18-2.71-.28-4.06-.41-6-.7-12-.7-17.89,0-5,.14-9.93.49-14.73,0-.86.12-1.72.18-2.58.07-1.13.17-2.24.27-3.34-1.23,0-2.44,0-3.67-.07.1,1.13.19,2.26.27,3.41l.18,2.52c.35,4.82.53,9.77.49,14.79,0,5.89-.3,11.88-.71,17.89-.09,1.51-.19,3-.29,4.53-.14,1.95-.27,3.9-.37,5.85q-.24,3.78-.33,7.5l-.12,4.62c-.08,2.66-.13,5.29-.19,7.89.27-.22.58-.43.87-.67a37.81,37.81,0,0,1,4.86-2.85C592.87,493.94,592.79,490.93,592.71,487.91Zm16.1,0c0-.49,0-1-.06-1.47-.12-3.66-.33-7.37-.59-11.1-.11-1.76-.23-3.53-.35-5.31-.11-1.62-.21-3.24-.29-4.86-.25-4.37-.41-8.72-.41-13,0-5.89.22-11.69.66-17.31,0-.19,0-.39,0-.57.18-2.16.33-4.27.49-6.36-1,.33-2.09.71-3.12,1.1l-1,.33c.14,1.81.3,3.65.43,5.5,0,.18,0,.33,0,.51.43,5.46.66,11.08.63,16.8,0,5-.22,10.09-.55,15.18,0,.9-.1,1.82-.16,2.71-.25,3.85-.52,7.69-.72,11.52-.12,1.91-.19,3.82-.25,5.71,0,.22,0,.43,0,.65,0,1.77-.1,3.55-.14,5.31a54.53,54.53,0,0,1,5.45-1Zm16.1,0c0-.51,0-1-.06-1.54-.18-5.39-.59-10.87-.94-16.34-.13-2.08-.27-4.19-.37-6.28s-.19-3.9-.23-5.85c0-1.29-.08-2.6-.08-3.89,0-.62,0-1.25,0-1.87,0-2.32,0-4.65.1-6.93.09-3.51.29-7,.56-10.38.1-1.33.22-2.65.32-4,.15-2,.29-4,.4-5.91-1.52.06-3,.19-4.54.39.12,1.91.27,3.86.41,5.85.1,1.19.19,2.4.29,3.63.31,4.06.55,8.18.63,12.37,0,1.64,0,3.28,0,4.94,0,1.4,0,2.81,0,4.21,0,.67,0,1.33-.06,2,0,2-.14,4.08-.26,6.11-.09,1.86-.19,3.73-.33,5.58-.35,5.35-.74,10.7-.92,16,0,.64,0,1.26-.07,1.91,0,1.31-.06,2.59-.1,3.9,1.74.08,3.53.22,5.4.45C625,490.82,625,489.35,624.91,487.91ZM641,489.64c0-.58,0-1.15,0-1.73-.16-5.9-.61-11.89-1-17.88-.12-1.81-.23-3.63-.31-5.44-.14-2-.22-4.06-.27-6.09s-.12-4.25-.12-6.36q0-4.68.17-9.27c.08-2,.2-4.06.36-6.05,0-.66.07-1.33.13-2,.08-1.05.16-2.09.26-3.12.13-2,.29-4,.41-5.88-1.49-.25-3-.44-4.49-.58.11,1.95.27,3.94.41,5.95.09,1.19.19,2.4.29,3.63.06.84.14,1.7.18,2.56.13,2,.25,4,.33,5.95.11,2.91.17,5.83.15,8.8,0,1.95,0,3.92-.09,5.89s-.14,3.92-.26,5.88S637,468,636.81,470c-.39,6-.84,12-1,17.88v.35c-.06,2-.12,4-.16,6,.94.23,1.87.49,2.83.76s1.81.53,2.71.76C641.16,493.74,641.1,491.69,641,489.64Zm-1.2-52.82c-.94.18-1.88.35-2.81.57.13,2,.25,4,.33,5.95.11,2.91.17,5.83.15,8.8,0,1.95,0,3.92-.09,5.89.66.14,1.32.3,2,.47q-.12-3.19-.12-6.36,0-4.68.17-9.27C639.56,440.84,639.68,438.81,639.84,436.82Zm0,0c-.94.18-1.88.35-2.81.57.13,2,.25,4,.33,5.95.11,2.91.17,5.83.15,8.8,0,1.95,0,3.92-.09,5.89.66.14,1.32.3,2,.47q-.12-3.19-.12-6.36,0-4.68.17-9.27C639.56,440.84,639.68,438.81,639.84,436.82Zm17.4,56.57c0-1.81-.1-3.65-.14-5.48-.13-5-.46-10-.8-15-.07-.95-.13-1.91-.19-2.87-.1-1.38-.18-2.77-.25-4.15-.28-4.61-.45-9.21-.45-13.74,0-3.4.06-6.73.21-10.05.08-2,.22-3.94.35-5.89a3.6,3.6,0,0,1,0-.49l.06-.88c.14-1.74.27-3.45.41-5.15-1.33-.43-2.67-.86-4-1.23.16,2.05.31,4.14.49,6.26v.12c0,.39.06.76.08,1.15.15,1.95.27,3.94.37,5.93.15,3.36.23,6.78.21,10.23,0,4-.13,8.1-.37,12.18-.08,1.91-.19,3.8-.33,5.71l-.06.88c-.37,5.7-.78,11.4-.94,17,0,1.48-.07,2.94-.11,4.43,0,2-.1,4-.16,6,2,.41,3.88.76,5.76,1.07C657.34,497.39,657.3,495.4,657.24,493.39Zm-19.88-50.05c.11,2.91.17,5.83.15,8.8,0,1.95,0,3.92-.09,5.89.66.14,1.32.3,2,.47q-.12-3.19-.12-6.36,0-4.68.17-9.27c.08-2,.2-4.06.36-6.05-.94.18-1.88.35-2.81.57C637.16,439.36,637.28,441.35,637.36,443.34Zm2.48-6.52c-.94.18-1.88.35-2.81.57.13,2,.25,4,.33,5.95.11,2.91.17,5.83.15,8.8,0,1.95,0,3.92-.09,5.89.66.14,1.32.3,2,.47q-.12-3.19-.12-6.36,0-4.68.17-9.27C639.56,440.84,639.68,438.81,639.84,436.82Zm33.54,58.39c-.06-2.42-.12-4.84-.18-7.3-.05-2.3-.17-4.63-.31-7-.1-2.17-.25-4.33-.39-6.52-.1-1.46-.19-2.94-.29-4.41-.41-6-.7-12-.7-17.89,0-2.07,0-4.14.07-6.19.08-3.39.26-6.73.51-10q-1.51-.71-3.06-1.38c0,.1,0,.19,0,.29.27,3.43.47,6.91.56,10.44.08,2.26.12,4.57.1,6.87,0,5.89-.29,11.88-.7,17.89l-.18,2.74c-.13,2.08-.29,4.17-.41,6.26-.17,3-.33,5.93-.41,8.88-.06,2.32-.11,4.62-.17,6.91-.06,2-.1,3.94-.16,5.87q3,.31,5.86.43C673.5,499.17,673.44,497.2,673.38,495.21ZM689.5,495c-.08-2.34-.14-4.68-.2-7.06,0-.37,0-.76,0-1.13-.06-2-.15-4.12-.29-6.19-.17-3.51-.43-7-.66-10.56-.37-5.56-.67-11.08-.69-16.54,0-.45,0-.9,0-1.35,0-2.64,0-5.27.12-7.86-.68-.41-1.38-.82-2.09-1.21.14,3,.2,6,.18,9.07v.35c0,5.78-.29,11.65-.7,17.54-.2,3.05-.41,6.09-.59,9.12-.14,2-.23,4-.29,6.05-.06.89-.1,1.81-.12,2.71-.06,2.48-.13,4.95-.19,7.39,0,2-.1,3.95-.14,5.9,2-.06,4-.18,5.85-.34C689.58,498.91,689.54,497,689.5,495Zm16-2.3c0-.64,0-1.27,0-1.91,0-1-.06-1.9-.08-2.85s-.06-2.09-.12-3.14c-.19-4.88-.56-9.8-.87-14.74-.16-2.2-.3-4.41-.39-6.61-.16-2.95-.26-5.9-.28-8.82-.6-.41-1.23-.82-1.85-1.25,0,2.83-.08,5.7-.22,8.57-.11,2.69-.29,5.4-.46,8.11-.3,4.57-.63,9.16-.82,13.68-.08,1.41-.14,2.79-.18,4.2,0,.58,0,1.17,0,1.75,0,1.35-.08,2.68-.12,4,0,2-.09,4-.13,6,2-.32,3.9-.67,5.75-1C705.62,496.65,705.58,494.66,705.52,492.67Zm16-4.76c0-.24,0-.45,0-.69-.14-4.37-.41-8.8-.72-13.24-.08-1.31-.18-2.64-.26-4s-.15-2.32-.21-3.49c-.84-.59-1.72-1.23-2.67-1.91-.08,1.79-.2,3.61-.32,5.4,0,.59-.07,1.15-.11,1.74-.33,5-.69,10-.82,14.87,0,.43,0,.84-.06,1.27-.08,2.85-.14,5.68-.23,8.47,2-.45,3.82-.86,5.62-1.23C721.62,492.75,721.56,490.35,721.5,487.91Zm16.1.17v-.17c0-1.56-.1-3.14-.2-4.72-.09-2.25-.23-4.49-.39-6.74-1.3-.68-2.61-1.36-3.9-2.08-.14,2.14-.27,4.29-.39,6.43-.14,2.39-.25,4.75-.31,7.11V488c-.06,1.95-.1,3.9-.16,5.83,1.82.06,3.63.12,5.5.14C737.7,492,737.66,490.05,737.6,488.08Z"/><path class="cls-2" d="M650.16,437.86a58.85,58.85,0,0,0-15,2c-10.29,2.72-19.08,15.9-28.4,29.86-10.75,16.11-21.86,32.77-35,32.77-11.56,0-21.63-15.88-31.36-31.24-11-17.35-22.37-35.3-37.91-35.3-11.45,0-20.66,18.32-31.32,39.53-12.22,24.32-26.07,51.89-44.3,51.89-21.56,0-37.72-20.43-54.84-42.06-9.87-12.47-20.06-25.35-32-35.3C328.79,440.6,318.38,436,308.19,436c-17.78,0-31.47,13.85-44.72,27.24-20.94,21.19-34.3,26.33-42,26.72v3.91c11.93-.49,27-9.86,44.81-27.88,13.34-13.49,25.93-26.23,41.75-26.23,9.25,0,18.91,4.31,29.52,13.18,11.59,9.7,21.66,22.43,31.4,34.73,17.72,22.39,34.46,43.54,57.9,43.54,20.63,0,35.06-28.71,47.79-54,9.66-19.22,18.79-37.38,27.83-37.38,13.39,0,24.18,17,34.61,33.49,10.78,17,21,33.05,34.66,33.05,15.24,0,26.94-17.54,38.26-34.5,8.5-12.74,17.29-25.91,26.15-28.25A54,54,0,0,1,650,441.8c20.6,0,38.92,11.73,58.31,24.15,21.24,13.6,43.19,27.66,70.28,28V490c-26-.34-47.41-14.08-68.17-27.37C690.47,449.91,671.65,437.86,650.16,437.86Z"/><path class="cls-3" d="M654.44,467.14c-8.62-5.28-16.88-8-24.54-8-8.84,0-17,3.38-25.07,10.35-6.2,5.36-13.49,7.75-20.77,6.78-10.09-1.34-20-8.78-28.54-21.52-4.24-6.32-8.41-13.21-12.43-19.88-12.48-20.69-24.24-40.18-38-42-17.74-2.3-33.49,15.29-60.75,45.84l-1.45,1.63C422.17,463.7,398,477,376.6,477a45.39,45.39,0,0,1-23.89-6.49c-10.36-6.27-19.12-9.19-27.56-9.19-14,0-26.5,8.46-42.54,20.42-10,7.45-22.71,8.27-47.38,8.27l-13.79,0v3.9l13.49,0c25.75,0,39.08-.89,50-9,15.92-11.86,27.31-19.63,40.21-19.63,7.71,0,15.83,2.73,25.53,8.61a49.21,49.21,0,0,0,25.86,7.05c22.55,0,47.8-13.82,69.3-37.91l1.42-1.6C473,412.56,487.2,396.66,502,396.66a20.48,20.48,0,0,1,2.59.17c11.85,1.53,23.66,21.11,35.09,40,4.08,6.77,8.27,13.71,12.57,20.1,9.21,13.69,20,21.72,31.25,23.21,8.43,1.12,16.77-1.58,23.84-7.71,7.36-6.37,14.73-9.47,22.52-9.47,6.94,0,14.3,2.44,22.51,7.47C666.72,479.24,697,494,738.56,494h40v-3.9h-40C697.91,490.05,668.41,475.7,654.44,467.14Z"/><path class="cls-4" d="M185.06,557h12.83v47.31H185.94L165.89,578v26.32H153V557h12l20.05,26.39Z"/><path class="cls-4" d="M270.92,557h14.37l-16,47.31H254.85l-8-30.3-8.24,30.3H224.28L208.41,557h15l8.5,32.87L240.34,557H254l8.51,32.8Z"/><path class="cls-4" d="M351.44,604.35l-2.77-7.56h-19.1l-2.83,7.56H312.29L332.47,557h14.45l19.51,47.31Zm-17.95-17.82H345l-5.67-15.45Z"/><path class="cls-4" d="M390.86,591.19a7.56,7.56,0,0,0,5.74,2.43,7.13,7.13,0,0,0,5.53-2.39,9.28,9.28,0,0,0,2.16-6.45V557h14v27.74a21.26,21.26,0,0,1-2.67,10.83,18,18,0,0,1-7.59,7.16,24.73,24.73,0,0,1-11.47,2.53A25.32,25.32,0,0,1,385,602.77a18.41,18.41,0,0,1-7.73-7.16,20.89,20.89,0,0,1-2.73-10.83V557h14v27.74A8.94,8.94,0,0,0,390.86,591.19Z"/><path class="cls-4" d="M466.36,560a21.42,21.42,0,0,1,8.94,8.3,25.59,25.59,0,0,1-.07,24.8,21.71,21.71,0,0,1-9.11,8.34,30,30,0,0,1-13.57,2.93H432.3V557H453A29,29,0,0,1,466.36,560Zm-5.17,29.93a13.45,13.45,0,0,0,3-9.11,13.19,13.19,0,0,0-3.17-9.18,10.6,10.6,0,0,0-8.24-3.51h-6.41v25.24h7.09A9.75,9.75,0,0,0,461.19,589.91Z"/><path class="cls-4" d="M490.48,557h14v47.31h-14Z"/><path class="cls-4" d="M555.52,559.33a23.58,23.58,0,0,1,9.24,8.74,23.88,23.88,0,0,1,3.35,12.53,24.31,24.31,0,0,1-3.35,12.65,23.54,23.54,0,0,1-9.24,8.84,28.81,28.81,0,0,1-26.43,0,23.66,23.66,0,0,1-9.21-8.84,24.31,24.31,0,0,1-3.34-12.65,23.58,23.58,0,0,1,12.55-21.27,29.13,29.13,0,0,1,26.43,0Zm-18.77,10.2a12.16,12.16,0,0,0-4.25,4.62,13.46,13.46,0,0,0-1.59,6.51,13.65,13.65,0,0,0,1.59,6.55,12.44,12.44,0,0,0,4.25,4.69,10.42,10.42,0,0,0,5.77,1.72,10,10,0,0,0,5.64-1.72,11.93,11.93,0,0,0,4.08-4.66,15.12,15.12,0,0,0,0-13.09,11.69,11.69,0,0,0-4-4.62,10.06,10.06,0,0,0-5.67-1.69A10.55,10.55,0,0,0,536.75,569.53Z"/><path class="cls-4" d="M596.93,557h15l10.8,32.74L633.51,557h14.38l-18.3,47.31H615Z"/><path class="cls-4" d="M658.35,557h14v47.31h-14Z"/><path class="cls-4" d="M721.15,560a21.38,21.38,0,0,1,9,8.3,25.59,25.59,0,0,1-.07,24.8,21.71,21.71,0,0,1-9.11,8.34,30,30,0,0,1-13.57,2.93H687.1V557h20.72A29,29,0,0,1,721.15,560ZM716,589.91a13.45,13.45,0,0,0,3-9.11,13.19,13.19,0,0,0-3.17-9.18,10.6,10.6,0,0,0-8.24-3.51h-6.41v25.24h7.09A9.75,9.75,0,0,0,716,589.91Z"/><path class="cls-4" d="M745.28,557H784v10.8H759.32v7.42h22.34v10.8H759.32v7.5h25.31v10.79H745.28Z"/><path class="cls-4" d="M834.41,559.33a23.6,23.6,0,0,1,9.25,8.74A23.88,23.88,0,0,1,847,580.6a24.31,24.31,0,0,1-3.34,12.65,23.57,23.57,0,0,1-9.25,8.84,28.79,28.79,0,0,1-26.42,0,23.62,23.62,0,0,1-9.22-8.84,24.4,24.4,0,0,1-3.34-12.65,24,24,0,0,1,3.34-12.53,23.66,23.66,0,0,1,9.22-8.74,29.11,29.11,0,0,1,26.42,0Zm-18.76,10.2a12.18,12.18,0,0,0-4.26,4.62,13.57,13.57,0,0,0-1.58,6.51,13.76,13.76,0,0,0,1.58,6.55,12.47,12.47,0,0,0,4.26,4.69,10.4,10.4,0,0,0,5.77,1.72,10,10,0,0,0,5.63-1.72,11.87,11.87,0,0,0,4.09-4.66,15.21,15.21,0,0,0,0-13.09,11.69,11.69,0,0,0-4-4.62,10.06,10.06,0,0,0-5.67-1.69A10.53,10.53,0,0,0,815.65,569.53Z"/></svg>